<?xml version="1.0"?>
<svg xmlns="http://www.w3.org/2000/svg" height="512px" viewBox="0 -13 512.00003 512" width="512px"><g><path d="m512 278.539062c-.003906-2.636718-1.464844-5.164062-3.75-6.484374l-120.730469-69.703126.3125-122.910156c0-2.644531-1.457031-5.191406-3.75-6.511718l-124.574219-71.925782c-2.324218-1.34375-5.195312-1.339844-7.519531.011719l-123.734375 71.90625c-2.316406 1.160156-3.753906 3.964844-3.761718 6.484375l-.3125 122.851562-120.09375 69.792969c-2.316407 1.15625-3.753907 3.964844-3.761719 6.480469l-.324219 127.1875c-.0078125 2.683594 1.425781 5.171875 3.75 6.511719l124.574219 71.925781c2.050781 1.539062 5.390625 1.230469 7.519531-.011719l57.285156-33.292969c3.582032-2.082031 4.796875-6.671874 2.714844-10.253906-2.078125-3.578125-6.671875-4.796875-10.25-2.714844l-45.988281 26.722657.28125-109.808594 108.742187-63.195313-.28125 109.8125-30.902344 17.957032c-3.582031 2.082031-4.796874 6.671875-2.71875 10.253906 2.082032 3.582031 6.671876 4.796875 10.253907 2.714844l30.871093-17.9375 120.808594 69.75c2.054688 1.539062 5.394532 1.230468 7.519532-.007813l123.765624-71.925781c2.304688-1.339844 3.726563-3.800781 3.730469-6.464844l.109375-42.894531c.011719-4.144531-3.339844-7.507813-7.480468-7.519531-.003907 0-.011719 0-.019532 0-4.132812 0-7.488281 3.34375-7.5 7.480468l-.097656 38.589844-108.742188 63.195313.28125-109.8125 108.742188-63.191407-.097656 36.695313c-.007813 4.144531 3.339844 7.507813 7.480468 7.519531h.019532c4.136718 0 7.492187-3.34375 7.5-7.480468l.128906-49.765626c0-.011718 0-.023437 0-.03125zm-262.945312-122.867187-.28125 109.890625-109.59375-63.277344.28125-109.890625zm-117.453126 59.621094 109.597657 63.277343-108.8125 63.234376-109.597657-63.273438zm132.027344 76.230469 109.597656 63.273437-.28125 109.890625-109.597656-63.273438zm117.09375 50.285156-109.574218-63.265625 108.816406-63.234375 109.574218 63.261718zm-124.953125-325.640625 109.597657 63.277343-58.550782 34.023438c-3.582031 2.082031-4.796875 6.671875-2.714844 10.253906 2.078126 3.582032 6.671876 4.796875 10.253907 2.714844l58.441406-33.960938-.277344 109.78125-108.742187 63.195313.28125-109.785156 19.859375-11.542969c3.582031-2.078125 4.796875-6.667969 2.714843-10.25-2.082031-3.582031-6.671874-4.800781-10.25-2.71875l-19.828124 11.523438-109.597657-63.277344zm-240.476562 275.355469 109.59375 63.273437-.28125 109.890625-109.59375-63.273438zm0 0" data-original="#000000" class="active-path" data-old_color="#000000" fill="#151446"/></g> </svg>
